
<svg width="151px" height="63px" viewBox="0 0 151 63" version="1.1" xmlns="http://www.w3.org/2000/svg" xmlns:xlink="http://www.w3.org/1999/xlink">
    <g id="Page-1" stroke="none" stroke-width="1" fill="none" fill-rule="evenodd">
        <g id="Home" transform="translate(-135.000000, -132.000000)">
            <g id="Group-3" transform="translate(136.000000, 133.000000)">
                <g id="Group-2" stroke="#FFFFFF">
                    <path d="M10.3074766,2.29078753 L57.0386508,50.4840256 C59.3454329,52.8629793 59.2869263,56.6615186 56.9079726,58.9683007 C55.7885297,60.0537825 54.2904764,60.660824 52.7311742,60.660824 L6,60.660824 C2.6862915,60.660824 -4.82366169e-16,57.9745325 0,54.660824 L0,6.46758596 C-9.8921602e-16,3.15387746 2.6862915,0.467585958 6,0.467585958 C7.62334474,0.467585958 9.17741268,1.12536761 10.3074766,2.29078753 Z" id="Combined-Shape"></path>
                    <path d="M28.6181375,1.4660647 L53.244759,52.9964268 C54.6736109,55.9862506 53.4081932,59.568295 50.4183695,60.9971469 C49.6105387,61.3832134 48.7265464,61.5835921 47.8312042,61.5835921 L23.2045827,61.5835921 C19.8908742,61.5835921 17.2045827,58.8973006 17.2045827,55.5835921 L17.2045827,4.05323001 C17.2045827,0.739521506 19.8908742,-1.94676999 23.2045827,-1.94676999 C25.5158055,-1.94676999 27.6215515,-0.619257248 28.6181375,1.4660647 Z" id="Combined-Shape" transform="translate(35.505054, 29.291796) rotate(-90.000000) translate(-35.505054, -29.291796) "></path>
                </g>
                <path d="M78.7773126,43 L78.7773126,31.06 L79.4013126,31.06 C79.6093136,31.06 79.7293124,31.159999 79.7613126,31.36 L79.8693126,33.088 C80.1013138,32.7599984 80.3493113,32.4600014 80.6133126,32.188 C80.8773139,31.9159986 81.1593111,31.682001 81.4593126,31.486 C81.7593141,31.289999 82.0793109,31.1380005 82.4193126,31.03 C82.7593143,30.9219995 83.1173107,30.868 83.4933126,30.868 C84.365317,30.868 85.06131,31.1219975 85.5813126,31.63 C86.1013152,32.1380025 86.4533117,32.8439955 86.6373126,33.748 C86.7813133,33.2519975 86.9833113,32.8240018 87.2433126,32.464 C87.5033139,32.1039982 87.8013109,31.8060012 88.1373126,31.57 C88.4733143,31.3339988 88.8393106,31.1580006 89.2353126,31.042 C89.6313146,30.9259994 90.0373105,30.868 90.4533126,30.868 C91.0453156,30.868 91.5773102,30.965999 92.0493126,31.162 C92.521315,31.358001 92.9233109,31.6479981 93.2553126,32.032 C93.5873143,32.4160019 93.8413117,32.8879972 94.0173126,33.448 C94.1933135,34.0080028 94.2813126,34.6479964 94.2813126,35.368 L94.2813126,43 L93.1293126,43 L93.1293126,35.368 C93.1293126,34.1999942 92.8773151,33.3100031 92.3733126,32.698 C91.8693101,32.0859969 91.1493173,31.78 90.2133126,31.78 C89.7973105,31.78 89.3993145,31.8559992 89.0193126,32.008 C88.6393107,32.1600008 88.3033141,32.3859985 88.0113126,32.686 C87.7193111,32.9860015 87.4873135,33.3599978 87.3153126,33.808 C87.1433117,34.2560022 87.0573126,34.775997 87.0573126,35.368 L87.0573126,43 L85.9173126,43 L85.9173126,35.368 C85.9173126,34.2079942 85.6853149,33.3200031 85.2213126,32.704 C84.7573103,32.0879969 84.081317,31.78 83.1933126,31.78 C82.5453094,31.78 81.9453154,31.9739981 81.3933126,32.362 C80.8413098,32.7500019 80.3493148,33.2879966 79.9173126,33.976 L79.9173126,43 L78.7773126,43 Z M102.417313,30.868 C103.273317,30.868 104.039309,31.0139985 104.715313,31.306 C105.391316,31.5980015 105.96131,32.0119973 106.425313,32.548 C106.889315,33.0840027 107.243311,33.7299962 107.487313,34.486 C107.731314,35.2420038 107.853313,36.0879953 107.853313,37.024 C107.853313,37.9600047 107.731314,38.8039962 107.487313,39.556 C107.243311,40.3080038 106.889315,40.9519973 106.425313,41.488 C105.96131,42.0240027 105.391316,42.4359986 104.715313,42.724 C104.039309,43.0120014 103.273317,43.156 102.417313,43.156 C101.561308,43.156 100.795316,43.0120014 100.119313,42.724 C99.4433092,42.4359986 98.8713149,42.0240027 98.4033126,41.488 C97.9353103,40.9519973 97.5793138,40.3080038 97.3353126,39.556 C97.0913114,38.8039962 96.9693126,37.9600047 96.9693126,37.024 C96.9693126,36.0879953 97.0913114,35.2420038 97.3353126,34.486 C97.5793138,33.7299962 97.9353103,33.0840027 98.4033126,32.548 C98.8713149,32.0119973 99.4433092,31.5980015 100.119313,31.306 C100.795316,31.0139985 101.561308,30.868 102.417313,30.868 Z M102.417313,42.256 C103.129316,42.256 103.75131,42.1340012 104.283313,41.89 C104.815315,41.6459988 105.259311,41.2960023 105.615313,40.84 C105.971314,40.3839977 106.237312,39.8340032 106.413313,39.19 C106.589313,38.5459968 106.677313,37.824004 106.677313,37.024 C106.677313,36.231996 106.589313,35.5120032 106.413313,34.864 C106.237312,34.2159968 105.971314,33.6620023 105.615313,33.202 C105.259311,32.7419977 104.815315,32.3880012 104.283313,32.14 C103.75131,31.8919988 103.129316,31.768 102.417313,31.768 C101.705309,31.768 101.083315,31.8919988 100.551313,32.14 C100.01931,32.3880012 99.5753144,32.7419977 99.2193126,33.202 C98.8633108,33.6620023 98.5953135,34.2159968 98.4153126,34.864 C98.2353117,35.5120032 98.1453126,36.231996 98.1453126,37.024 C98.1453126,37.824004 98.2353117,38.5459968 98.4153126,39.19 C98.5953135,39.8340032 98.8633108,40.3839977 99.2193126,40.84 C99.5753144,41.2960023 100.01931,41.6459988 100.551313,41.89 C101.083315,42.1340012 101.705309,42.256 102.417313,42.256 Z M112.329313,31.06 L112.329313,44.524 C112.329313,44.9400021 112.269313,45.3239982 112.149313,45.676 C112.029312,46.0280018 111.851314,46.3339987 111.615313,46.594 C111.379311,46.8540013 111.083314,47.0579993 110.727313,47.206 C110.371311,47.3540007 109.953315,47.428 109.473313,47.428 C109.241311,47.428 109.033314,47.4080002 108.849313,47.368 C108.665312,47.3279998 108.485313,47.2640004 108.309313,47.176 L108.369313,46.6 C108.377313,46.5039995 108.433312,46.456 108.537313,46.456 C108.601313,46.456 108.691312,46.4719998 108.807313,46.504 C108.923313,46.5360002 109.081312,46.552 109.281313,46.552 C109.929316,46.552 110.409311,46.3760018 110.721313,46.024 C111.033314,45.6719982 111.189313,45.1720032 111.189313,44.524 L111.189313,31.06 L112.329313,31.06 Z M112.833313,26.944 C112.833313,27.0880007 112.803313,27.2219994 112.743313,27.346 C112.683312,27.4700006 112.605313,27.5799995 112.509313,27.676 C112.413312,27.7720005 112.301313,27.8479997 112.173313,27.904 C112.045312,27.9600003 111.909313,27.988 111.765313,27.988 C111.621312,27.988 111.485313,27.9600003 111.357313,27.904 C111.229312,27.8479997 111.117313,27.7720005 111.021313,27.676 C110.925312,27.5799995 110.849313,27.4700006 110.793313,27.346 C110.737312,27.2219994 110.709313,27.0880007 110.709313,26.944 C110.709313,26.7999993 110.737312,26.6620007 110.793313,26.53 C110.849313,26.3979993 110.925312,26.2840005 111.021313,26.188 C111.117313,26.0919995 111.229312,26.0160003 111.357313,25.96 C111.485313,25.9039997 111.621312,25.876 111.765313,25.876 C111.909313,25.876 112.045312,25.9039997 112.173313,25.96 C112.301313,26.0160003 112.413312,26.0919995 112.509313,26.188 C112.605313,26.2840005 112.683312,26.3979993 112.743313,26.53 C112.803313,26.6620007 112.833313,26.7999993 112.833313,26.944 Z M121.005313,30.868 C121.677316,30.868 122.29931,30.9839988 122.871313,31.216 C123.443315,31.4480012 123.939311,31.7859978 124.359313,32.23 C124.779315,32.6740022 125.107311,33.2199968 125.343313,33.868 C125.579314,34.5160032 125.697313,35.2599958 125.697313,36.1 C125.697313,36.2760009 125.671313,36.3959997 125.619313,36.46 C125.567312,36.5240003 125.485313,36.556 125.373313,36.556 L116.745313,36.556 L116.745313,36.784 C116.745313,37.6800045 116.849312,38.4679966 117.057313,39.148 C117.265314,39.8280034 117.561311,40.3979977 117.945313,40.858 C118.329315,41.3180023 118.79331,41.6639988 119.337313,41.896 C119.881315,42.1280012 120.489309,42.244 121.161313,42.244 C121.761316,42.244 122.28131,42.1780007 122.721313,42.046 C123.161315,41.9139993 123.531311,41.7660008 123.831313,41.602 C124.131314,41.4379992 124.369312,41.2900007 124.545313,41.158 C124.721313,41.0259993 124.849312,40.96 124.929313,40.96 C125.033313,40.96 125.113312,40.9999996 125.169313,41.08 L125.481313,41.464 C125.289312,41.7040012 125.035314,41.927999 124.719313,42.136 C124.403311,42.344001 124.051315,42.5219993 123.663313,42.67 C123.275311,42.8180007 122.859315,42.9359996 122.415313,43.024 C121.97131,43.1120004 121.525315,43.156 121.077313,43.156 C120.261309,43.156 119.517316,43.0140014 118.845313,42.73 C118.173309,42.4459986 117.597315,42.0320027 117.117313,41.488 C116.63731,40.9439973 116.267314,40.2780039 116.007313,39.49 C115.747311,38.7019961 115.617313,37.8000051 115.617313,36.784 C115.617313,35.9279957 115.739311,35.1380036 115.983313,34.414 C116.227314,33.6899964 116.57931,33.0660026 117.039313,32.542 C117.499315,32.0179974 118.063309,31.6080015 118.731313,31.312 C119.399316,31.0159985 120.157308,30.868 121.005313,30.868 Z M121.017313,31.72 C120.40131,31.72 119.849315,31.815999 119.361313,32.008 C118.87331,32.200001 118.451314,32.4759982 118.095313,32.836 C117.739311,33.1960018 117.451314,33.6279975 117.231313,34.132 C117.011312,34.6360025 116.865313,35.1999969 116.793313,35.824 L124.665313,35.824 C124.665313,35.1839968 124.577313,34.6100025 124.401313,34.102 C124.225312,33.5939975 123.977314,33.1640018 123.657313,32.812 C123.337311,32.4599982 122.953315,32.1900009 122.505313,32.002 C122.05731,31.8139991 121.561315,31.72 121.017313,31.72 Z M137.229313,43 C137.029312,43 136.913313,42.896001 136.881313,42.688 L136.761313,40.804 C136.23331,41.5240036 135.615316,42.0959979 134.907313,42.52 C134.199309,42.9440021 133.405317,43.156 132.525313,43.156 C131.061305,43.156 129.919317,42.6480051 129.099313,41.632 C128.279309,40.6159949 127.869313,39.0920102 127.869313,37.06 C127.869313,36.1879956 127.983311,35.3740038 128.211313,34.618 C128.439314,33.8619962 128.77531,33.2060028 129.219313,32.65 C129.663315,32.0939972 130.207309,31.6560016 130.851313,31.336 C131.495316,31.0159984 132.237308,30.856 133.077313,30.856 C133.885317,30.856 134.58531,31.0059985 135.177313,31.306 C135.769316,31.6060015 136.28131,32.0439971 136.713313,32.62 L136.713313,25.54 L137.865313,25.54 L137.865313,43 L137.229313,43 Z M132.849313,42.232 C133.641317,42.232 134.357309,42.028002 134.997313,41.62 C135.637316,41.211998 136.20931,40.6440036 136.713313,39.916 L136.713313,33.616 C136.24931,32.9359966 135.739315,32.4560014 135.183313,32.176 C134.62731,31.8959986 133.997316,31.756 133.293313,31.756 C132.589309,31.756 131.973315,31.8839987 131.445313,32.14 C130.91731,32.3960013 130.475314,32.7579977 130.119313,33.226 C129.763311,33.6940023 129.495314,34.2539967 129.315313,34.906 C129.135312,35.5580033 129.045313,36.2759961 129.045313,37.06 C129.045313,38.8360089 129.373309,40.1419958 130.029313,40.978 C130.685316,41.8140042 131.625306,42.232 132.849313,42.232 Z M149.493313,43 C149.253311,43 149.105313,42.8880011 149.049313,42.664 L148.881313,41.14 C148.553311,41.4600016 148.227314,41.7479987 147.903313,42.004 C147.579311,42.2600013 147.241314,42.4759991 146.889313,42.652 C146.537311,42.8280009 146.157315,42.9619995 145.749313,43.054 C145.341311,43.1460005 144.893315,43.192 144.405313,43.192 C143.997311,43.192 143.601315,43.1320006 143.217313,43.012 C142.833311,42.8919994 142.493314,42.7080012 142.197313,42.46 C141.901311,42.2119988 141.663314,41.8940019 141.483313,41.506 C141.303312,41.1179981 141.213313,40.6520027 141.213313,40.108 C141.213313,39.6039975 141.357311,39.1360022 141.645313,38.704 C141.933314,38.2719978 142.38331,37.8960016 142.995313,37.576 C143.607316,37.2559984 144.395308,37.000001 145.359313,36.808 C146.323317,36.615999 147.481306,36.5040002 148.833313,36.472 L148.833313,35.224 C148.833313,34.1199945 148.595315,33.270003 148.119313,32.674 C147.64331,32.077997 146.937317,31.78 146.001313,31.78 C145.42531,31.78 144.935315,31.8599992 144.531313,32.02 C144.127311,32.1800008 143.785314,32.356 143.505313,32.548 C143.225311,32.740001 142.997313,32.9159992 142.821313,33.076 C142.645312,33.2360008 142.497313,33.316 142.377313,33.316 C142.217312,33.316 142.097313,33.2440007 142.017313,33.1 L141.813313,32.752 C142.437316,32.1279969 143.093309,31.6560016 143.781313,31.336 C144.469316,31.0159984 145.249308,30.856 146.121313,30.856 C146.761316,30.856 147.32131,30.957999 147.801313,31.162 C148.281315,31.366001 148.679311,31.6579981 148.995313,32.038 C149.311314,32.4180019 149.549312,32.8779973 149.709313,33.418 C149.869313,33.9580027 149.949313,34.5599967 149.949313,35.224 L149.949313,43 L149.493313,43 Z M144.693313,42.364 C145.157315,42.364 145.583311,42.3140005 145.971313,42.214 C146.359315,42.1139995 146.719311,41.9740009 147.051313,41.794 C147.383314,41.6139991 147.693311,41.4000012 147.981313,41.152 C148.269314,40.9039988 148.553311,40.6360014 148.833313,40.348 L148.833313,37.24 C147.697307,37.2720002 146.719317,37.3579993 145.899313,37.498 C145.079309,37.6380007 144.403315,37.8279988 143.871313,38.068 C143.33931,38.3080012 142.947314,38.5939983 142.695313,38.926 C142.443311,39.2580017 142.317313,39.6359979 142.317313,40.06 C142.317313,40.460002 142.383312,40.8059985 142.515313,41.098 C142.647313,41.3900015 142.821312,41.6299991 143.037313,41.818 C143.253314,42.0060009 143.505311,42.1439996 143.793313,42.232 C144.081314,42.3200004 144.381311,42.364 144.693313,42.364 Z" id="mojeda" fill="#FFFFFF" fill-rule="nonzero"></path>
            </g>
        </g>
    </g>
</svg>